# xmcd
#
# Track frame offsets:
#	150
#	18280
#	44190
#	99297
#	116867
#	156790
#	176920
#	195890
#	217277
#	236232
#
# Disc length: 3485 seconds
#
# Revision: 1
# Processed by: cddbd v1.5PL3 Copyright (c) Steve Scherf et al.
# Submitted via: EasyCDDAExtractor 5.0.6
#
DISCID=8f0d9b0a
DTITLE=RABB - Rhytm And Blues Branch
DYEAR=1900
DGENRE=
TTITLE0=Nessie
TTITLE1=Török Bácsi
TTITLE2=Hideg-meleg szendvics blues
TTITLE3=Hihetetlenül Nagy F.
TTITLE4=Lusta Blues
TTITLE5=Pinyóz Nightflights
TTITLE6=Asztalhoz leültem
TTITLE7=Hívj fel
TTITLE8=Örök lázadó
TTITLE9=Újra Rock and Roll
EXTD=
EXTT0=
EXTT1=
EXTT2=
EXTT3=
EXTT4=
EXTT5=
EXTT6=
EXTT7=
EXTT8=
EXTT9=
PLAYORDER=
